<mxfile host="app.diagrams.net" modified="2023-04-29T10:26:07.604Z" agent="Mozilla/5.0 (Windows NT 10.0; Win64; x64) AppleWebKit/537.36 (KHTML, like Gecko) Chrome/112.0.0.0 Safari/537.36" etag="k_5bekkQxy2a-IFKKVS5" version="21.1.1" type="github">
  <diagram name="Page-1" id="2YBvvXClWsGukQMizWep">
    <mxGraphModel dx="2537" dy="1999" grid="1" gridSize="10" guides="1" tooltips="1" connect="1" arrows="1" fold="1" page="1" pageScale="1" pageWidth="850" pageHeight="1100" math="0" shadow="0">
      <root>
        <mxCell id="0" />
        <mxCell id="1" parent="0" />
        <mxCell id="MEd4CwuiAMRqGkoVa9on-116" value="run()" style="html=1;verticalAlign=bottom;endArrow=none;edgeStyle=elbowEdgeStyle;elbow=vertical;curved=0;rounded=0;endFill=0;startArrow=classic;startFill=1;strokeWidth=1;startSize=6;" edge="1" parent="1">
          <mxGeometry relative="1" as="geometry">
            <mxPoint x="145" y="20" as="sourcePoint" />
            <Array as="points">
              <mxPoint x="200" y="20" />
              <mxPoint x="226" y="10" />
              <mxPoint x="226" y="30" />
              <mxPoint x="126" y="20" />
              <mxPoint x="66" y="20" />
              <mxPoint x="24" y="30" />
              <mxPoint x="64" y="40" />
              <mxPoint x="-31" y="40" />
            </Array>
            <mxPoint x="330" y="20" as="targetPoint" />
            <mxPoint as="offset" />
          </mxGeometry>
        </mxCell>
        <mxCell id="MEd4CwuiAMRqGkoVa9on-94" value="showNewTurnIntro()" style="html=1;verticalAlign=bottom;endArrow=none;edgeStyle=elbowEdgeStyle;elbow=vertical;curved=0;rounded=0;endFill=0;startArrow=classic;startFill=1;strokeWidth=1;startSize=6;" edge="1" parent="1" source="MEd4CwuiAMRqGkoVa9on-7">
          <mxGeometry x="-0.3174" relative="1" as="geometry">
            <mxPoint x="-40" y="810" as="sourcePoint" />
            <Array as="points">
              <mxPoint x="7.5" y="810" />
              <mxPoint x="33.5" y="800" />
              <mxPoint x="33.5" y="820" />
              <mxPoint x="-66.5" y="810" />
              <mxPoint x="-126.5" y="810" />
              <mxPoint x="-168.5" y="820" />
              <mxPoint x="-128.5" y="830" />
              <mxPoint x="-223.5" y="830" />
            </Array>
            <mxPoint x="145" y="740" as="targetPoint" />
            <mxPoint as="offset" />
          </mxGeometry>
        </mxCell>
        <mxCell id="MEd4CwuiAMRqGkoVa9on-75" value="numberOfPlayersModified()" style="html=1;verticalAlign=bottom;endArrow=none;edgeStyle=elbowEdgeStyle;elbow=vertical;curved=0;rounded=0;endFill=0;startArrow=classic;startFill=1;strokeWidth=1;startSize=6;entryX=0.5;entryY=0.6;entryDx=0;entryDy=0;entryPerimeter=0;" edge="1" parent="1" source="MEd4CwuiAMRqGkoVa9on-76" target="MEd4CwuiAMRqGkoVa9on-73">
          <mxGeometry x="-0.4711" relative="1" as="geometry">
            <mxPoint x="550" y="620" as="sourcePoint" />
            <Array as="points">
              <mxPoint x="790" y="620" />
              <mxPoint x="816" y="610" />
              <mxPoint x="816" y="630" />
              <mxPoint x="716" y="620" />
              <mxPoint x="656" y="620" />
              <mxPoint x="614" y="630" />
              <mxPoint x="654" y="640" />
              <mxPoint x="559" y="640" />
            </Array>
            <mxPoint x="920" y="620" as="targetPoint" />
            <mxPoint as="offset" />
          </mxGeometry>
        </mxCell>
        <mxCell id="MEd4CwuiAMRqGkoVa9on-74" value="setNumberOfPlayers(number)" style="html=1;verticalAlign=bottom;endArrow=block;edgeStyle=elbowEdgeStyle;elbow=vertical;curved=0;rounded=0;fontSize=8;exitX=0.6;exitY=0.069;exitDx=0;exitDy=0;exitPerimeter=0;" edge="1" parent="1" source="MEd4CwuiAMRqGkoVa9on-72" target="MEd4CwuiAMRqGkoVa9on-73">
          <mxGeometry relative="1" as="geometry">
            <mxPoint x="730" y="590" as="sourcePoint" />
            <Array as="points">
              <mxPoint x="820" y="590" />
              <mxPoint x="860" y="600" />
              <mxPoint x="765" y="600" />
            </Array>
            <mxPoint x="909" y="590" as="targetPoint" />
          </mxGeometry>
        </mxCell>
        <mxCell id="MEd4CwuiAMRqGkoVa9on-38" value="activePlayerIndexModified()" style="html=1;verticalAlign=bottom;endArrow=none;edgeStyle=elbowEdgeStyle;elbow=vertical;curved=0;rounded=0;endFill=0;startArrow=classic;startFill=1;strokeWidth=1;startSize=6;" edge="1" parent="1" source="MEd4CwuiAMRqGkoVa9on-40" target="MEd4CwuiAMRqGkoVa9on-37">
          <mxGeometry x="-0.4711" relative="1" as="geometry">
            <mxPoint x="540" y="308" as="sourcePoint" />
            <Array as="points">
              <mxPoint x="795" y="308" />
              <mxPoint x="821" y="298" />
              <mxPoint x="821" y="318" />
              <mxPoint x="721" y="308" />
              <mxPoint x="661" y="308" />
              <mxPoint x="619" y="318" />
              <mxPoint x="659" y="328" />
              <mxPoint x="564" y="328" />
            </Array>
            <mxPoint x="920" y="308" as="targetPoint" />
            <mxPoint as="offset" />
          </mxGeometry>
        </mxCell>
        <mxCell id="MEd4CwuiAMRqGkoVa9on-25" value="addPlayer(nickname)" style="html=1;verticalAlign=bottom;endArrow=block;edgeStyle=elbowEdgeStyle;elbow=vertical;curved=0;rounded=0;" edge="1" parent="1" source="MEd4CwuiAMRqGkoVa9on-21" target="MEd4CwuiAMRqGkoVa9on-24">
          <mxGeometry x="0.0547" relative="1" as="geometry">
            <mxPoint x="530" y="170" as="sourcePoint" />
            <Array as="points">
              <mxPoint x="820" y="150" />
              <mxPoint x="820" y="170" />
              <mxPoint x="720" y="160" />
              <mxPoint x="660" y="160" />
              <mxPoint x="618" y="170" />
              <mxPoint x="658" y="180" />
              <mxPoint x="563" y="180" />
            </Array>
            <mxPoint x="713" y="170" as="targetPoint" />
            <mxPoint as="offset" />
          </mxGeometry>
        </mxCell>
        <mxCell id="MEd4CwuiAMRqGkoVa9on-18" value="addPlayer(nickname)" style="html=1;verticalAlign=bottom;endArrow=block;edgeStyle=elbowEdgeStyle;elbow=vertical;curved=0;rounded=0;" edge="1" parent="1" source="MEd4CwuiAMRqGkoVa9on-1" target="MEd4CwuiAMRqGkoVa9on-41">
          <mxGeometry relative="1" as="geometry">
            <mxPoint x="150" y="130" as="sourcePoint" />
            <Array as="points">
              <mxPoint x="230" y="120" />
              <mxPoint x="270" y="130" />
              <mxPoint x="175" y="130" />
            </Array>
            <mxPoint x="320" y="130" as="targetPoint" />
          </mxGeometry>
        </mxCell>
        <mxCell id="MEd4CwuiAMRqGkoVa9on-11" value="" style="endArrow=none;dashed=1;html=1;rounded=0;" edge="1" parent="1">
          <mxGeometry width="50" height="50" relative="1" as="geometry">
            <mxPoint x="-41" y="1120" as="sourcePoint" />
            <mxPoint x="-41" as="targetPoint" />
          </mxGeometry>
        </mxCell>
        <mxCell id="aM9ryv3xv72pqoxQDRHE-1" value=":Client" style="shape=umlLifeline;perimeter=lifelinePerimeter;whiteSpace=wrap;html=1;container=0;dropTarget=0;collapsible=0;recursiveResize=0;outlineConnect=0;portConstraint=eastwest;newEdgeStyle={&quot;edgeStyle&quot;:&quot;elbowEdgeStyle&quot;,&quot;elbow&quot;:&quot;vertical&quot;,&quot;curved&quot;:0,&quot;rounded&quot;:0};" parent="1" vertex="1">
          <mxGeometry x="280" y="-60" width="100" height="1180" as="geometry" />
        </mxCell>
        <mxCell id="aM9ryv3xv72pqoxQDRHE-2" value="" style="html=1;points=[];perimeter=orthogonalPerimeter;outlineConnect=0;targetShapes=umlLifeline;portConstraint=eastwest;newEdgeStyle={&quot;edgeStyle&quot;:&quot;elbowEdgeStyle&quot;,&quot;elbow&quot;:&quot;vertical&quot;,&quot;curved&quot;:0,&quot;rounded&quot;:0};" parent="aM9ryv3xv72pqoxQDRHE-1" vertex="1">
          <mxGeometry x="45" y="60" width="10" height="1050" as="geometry" />
        </mxCell>
        <mxCell id="MEd4CwuiAMRqGkoVa9on-41" value="" style="html=1;points=[];perimeter=orthogonalPerimeter;outlineConnect=0;targetShapes=umlLifeline;portConstraint=eastwest;newEdgeStyle={&quot;edgeStyle&quot;:&quot;elbowEdgeStyle&quot;,&quot;elbow&quot;:&quot;vertical&quot;,&quot;curved&quot;:0,&quot;rounded&quot;:0};" vertex="1" parent="aM9ryv3xv72pqoxQDRHE-1">
          <mxGeometry x="40" y="180" width="10" height="30" as="geometry" />
        </mxCell>
        <mxCell id="MEd4CwuiAMRqGkoVa9on-56" value="" style="html=1;points=[];perimeter=orthogonalPerimeter;outlineConnect=0;targetShapes=umlLifeline;portConstraint=eastwest;newEdgeStyle={&quot;edgeStyle&quot;:&quot;elbowEdgeStyle&quot;,&quot;elbow&quot;:&quot;vertical&quot;,&quot;curved&quot;:0,&quot;rounded&quot;:0};" vertex="1" parent="aM9ryv3xv72pqoxQDRHE-1">
          <mxGeometry x="50" y="440" width="10" height="30" as="geometry" />
        </mxCell>
        <mxCell id="MEd4CwuiAMRqGkoVa9on-57" value="updateModelView(GameView)" style="html=1;verticalAlign=bottom;endArrow=none;edgeStyle=elbowEdgeStyle;elbow=vertical;curved=0;rounded=0;endFill=0;startArrow=classic;startFill=1;strokeWidth=1;startSize=6;" edge="1" parent="aM9ryv3xv72pqoxQDRHE-1" target="MEd4CwuiAMRqGkoVa9on-56">
          <mxGeometry relative="1" as="geometry">
            <mxPoint x="-130" y="460" as="sourcePoint" />
            <Array as="points">
              <mxPoint x="-75" y="460" />
              <mxPoint x="-49" y="450" />
              <mxPoint x="-49" y="470" />
              <mxPoint x="-149" y="460" />
              <mxPoint x="-209" y="460" />
              <mxPoint x="-251" y="470" />
              <mxPoint x="-211" y="480" />
              <mxPoint x="-306" y="480" />
            </Array>
            <mxPoint x="40" y="460" as="targetPoint" />
            <mxPoint as="offset" />
          </mxGeometry>
        </mxCell>
        <mxCell id="MEd4CwuiAMRqGkoVa9on-58" value="" style="html=1;points=[];perimeter=orthogonalPerimeter;outlineConnect=0;targetShapes=umlLifeline;portConstraint=eastwest;newEdgeStyle={&quot;edgeStyle&quot;:&quot;elbowEdgeStyle&quot;,&quot;elbow&quot;:&quot;vertical&quot;,&quot;curved&quot;:0,&quot;rounded&quot;:0};" vertex="1" parent="aM9ryv3xv72pqoxQDRHE-1">
          <mxGeometry x="50" y="388" width="10" height="30" as="geometry" />
        </mxCell>
        <mxCell id="MEd4CwuiAMRqGkoVa9on-59" value="updateModelView(GameView)" style="html=1;verticalAlign=bottom;endArrow=none;edgeStyle=elbowEdgeStyle;elbow=vertical;curved=0;rounded=0;endFill=0;startArrow=classic;startFill=1;strokeWidth=1;startSize=6;" edge="1" parent="aM9ryv3xv72pqoxQDRHE-1" target="MEd4CwuiAMRqGkoVa9on-58">
          <mxGeometry relative="1" as="geometry">
            <mxPoint x="-130" y="408" as="sourcePoint" />
            <Array as="points">
              <mxPoint x="-75" y="408" />
              <mxPoint x="-49" y="398" />
              <mxPoint x="-49" y="418" />
              <mxPoint x="-149" y="408" />
              <mxPoint x="-209" y="408" />
              <mxPoint x="-251" y="418" />
              <mxPoint x="-211" y="428" />
              <mxPoint x="-306" y="428" />
            </Array>
            <mxPoint x="40" y="408" as="targetPoint" />
            <mxPoint as="offset" />
          </mxGeometry>
        </mxCell>
        <mxCell id="MEd4CwuiAMRqGkoVa9on-69" value="" style="html=1;points=[];perimeter=orthogonalPerimeter;outlineConnect=0;targetShapes=umlLifeline;portConstraint=eastwest;newEdgeStyle={&quot;edgeStyle&quot;:&quot;elbowEdgeStyle&quot;,&quot;elbow&quot;:&quot;vertical&quot;,&quot;curved&quot;:0,&quot;rounded&quot;:0};" vertex="1" parent="aM9ryv3xv72pqoxQDRHE-1">
          <mxGeometry x="50" y="490" width="10" height="30" as="geometry" />
        </mxCell>
        <mxCell id="MEd4CwuiAMRqGkoVa9on-79" value="" style="html=1;points=[];perimeter=orthogonalPerimeter;outlineConnect=0;targetShapes=umlLifeline;portConstraint=eastwest;newEdgeStyle={&quot;edgeStyle&quot;:&quot;elbowEdgeStyle&quot;,&quot;elbow&quot;:&quot;vertical&quot;,&quot;curved&quot;:0,&quot;rounded&quot;:0};" vertex="1" parent="aM9ryv3xv72pqoxQDRHE-1">
          <mxGeometry x="40" y="610" width="10" height="30" as="geometry" />
        </mxCell>
        <mxCell id="MEd4CwuiAMRqGkoVa9on-118" value="" style="html=1;points=[];perimeter=orthogonalPerimeter;outlineConnect=0;targetShapes=umlLifeline;portConstraint=eastwest;newEdgeStyle={&quot;edgeStyle&quot;:&quot;elbowEdgeStyle&quot;,&quot;elbow&quot;:&quot;vertical&quot;,&quot;curved&quot;:0,&quot;rounded&quot;:0};" vertex="1" parent="aM9ryv3xv72pqoxQDRHE-1">
          <mxGeometry x="50" y="270" width="10" height="30" as="geometry" />
        </mxCell>
        <mxCell id="MEd4CwuiAMRqGkoVa9on-121" value="" style="html=1;points=[];perimeter=orthogonalPerimeter;outlineConnect=0;targetShapes=umlLifeline;portConstraint=eastwest;newEdgeStyle={&quot;edgeStyle&quot;:&quot;elbowEdgeStyle&quot;,&quot;elbow&quot;:&quot;vertical&quot;,&quot;curved&quot;:0,&quot;rounded&quot;:0};" vertex="1" parent="aM9ryv3xv72pqoxQDRHE-1">
          <mxGeometry x="50" y="690" width="10" height="30" as="geometry" />
        </mxCell>
        <mxCell id="MEd4CwuiAMRqGkoVa9on-109" value="" style="html=1;points=[];perimeter=orthogonalPerimeter;outlineConnect=0;targetShapes=umlLifeline;portConstraint=eastwest;newEdgeStyle={&quot;edgeStyle&quot;:&quot;elbowEdgeStyle&quot;,&quot;elbow&quot;:&quot;vertical&quot;,&quot;curved&quot;:0,&quot;rounded&quot;:0};" vertex="1" parent="aM9ryv3xv72pqoxQDRHE-1">
          <mxGeometry x="40" y="930" width="10" height="30" as="geometry" />
        </mxCell>
        <mxCell id="MEd4CwuiAMRqGkoVa9on-127" value="" style="html=1;points=[];perimeter=orthogonalPerimeter;outlineConnect=0;targetShapes=umlLifeline;portConstraint=eastwest;newEdgeStyle={&quot;edgeStyle&quot;:&quot;elbowEdgeStyle&quot;,&quot;elbow&quot;:&quot;vertical&quot;,&quot;curved&quot;:0,&quot;rounded&quot;:0};" vertex="1" parent="aM9ryv3xv72pqoxQDRHE-1">
          <mxGeometry x="50" y="1020" width="10" height="30" as="geometry" />
        </mxCell>
        <mxCell id="aM9ryv3xv72pqoxQDRHE-5" value=":Server" style="shape=umlLifeline;perimeter=lifelinePerimeter;whiteSpace=wrap;html=1;container=0;dropTarget=0;collapsible=0;recursiveResize=0;outlineConnect=0;portConstraint=eastwest;newEdgeStyle={&quot;edgeStyle&quot;:&quot;elbowEdgeStyle&quot;,&quot;elbow&quot;:&quot;vertical&quot;,&quot;curved&quot;:0,&quot;rounded&quot;:0};" parent="1" vertex="1">
          <mxGeometry x="474" y="40" width="100" height="1080" as="geometry" />
        </mxCell>
        <mxCell id="aM9ryv3xv72pqoxQDRHE-6" value="" style="html=1;points=[];perimeter=orthogonalPerimeter;outlineConnect=0;targetShapes=umlLifeline;portConstraint=eastwest;newEdgeStyle={&quot;edgeStyle&quot;:&quot;elbowEdgeStyle&quot;,&quot;elbow&quot;:&quot;vertical&quot;,&quot;curved&quot;:0,&quot;rounded&quot;:0};" parent="aM9ryv3xv72pqoxQDRHE-5" vertex="1">
          <mxGeometry x="45" y="60" width="10" height="1000" as="geometry" />
        </mxCell>
        <mxCell id="MEd4CwuiAMRqGkoVa9on-31" value="" style="html=1;points=[];perimeter=orthogonalPerimeter;outlineConnect=0;targetShapes=umlLifeline;portConstraint=eastwest;newEdgeStyle={&quot;edgeStyle&quot;:&quot;elbowEdgeStyle&quot;,&quot;elbow&quot;:&quot;vertical&quot;,&quot;curved&quot;:0,&quot;rounded&quot;:0};" vertex="1" parent="aM9ryv3xv72pqoxQDRHE-5">
          <mxGeometry x="51" y="150" width="10" height="40" as="geometry" />
        </mxCell>
        <mxCell id="MEd4CwuiAMRqGkoVa9on-40" value="" style="html=1;points=[];perimeter=orthogonalPerimeter;outlineConnect=0;targetShapes=umlLifeline;portConstraint=eastwest;newEdgeStyle={&quot;edgeStyle&quot;:&quot;elbowEdgeStyle&quot;,&quot;elbow&quot;:&quot;vertical&quot;,&quot;curved&quot;:0,&quot;rounded&quot;:0};" vertex="1" parent="aM9ryv3xv72pqoxQDRHE-5">
          <mxGeometry x="51" y="268" width="10" height="40" as="geometry" />
        </mxCell>
        <mxCell id="MEd4CwuiAMRqGkoVa9on-47" value="" style="html=1;points=[];perimeter=orthogonalPerimeter;outlineConnect=0;targetShapes=umlLifeline;portConstraint=eastwest;newEdgeStyle={&quot;edgeStyle&quot;:&quot;elbowEdgeStyle&quot;,&quot;elbow&quot;:&quot;vertical&quot;,&quot;curved&quot;:0,&quot;rounded&quot;:0};" vertex="1" parent="aM9ryv3xv72pqoxQDRHE-5">
          <mxGeometry x="51" y="318" width="10" height="40" as="geometry" />
        </mxCell>
        <mxCell id="MEd4CwuiAMRqGkoVa9on-48" value="addedTilesToBoard()" style="html=1;verticalAlign=bottom;endArrow=none;edgeStyle=elbowEdgeStyle;elbow=vertical;curved=0;rounded=0;endFill=0;startArrow=classic;startFill=1;strokeWidth=1;startSize=6;" edge="1" parent="aM9ryv3xv72pqoxQDRHE-5" source="MEd4CwuiAMRqGkoVa9on-47">
          <mxGeometry x="-0.4711" relative="1" as="geometry">
            <mxPoint x="66" y="318" as="sourcePoint" />
            <Array as="points">
              <mxPoint x="321" y="318" />
              <mxPoint x="347" y="308" />
              <mxPoint x="347" y="328" />
              <mxPoint x="247" y="318" />
              <mxPoint x="187" y="318" />
              <mxPoint x="145" y="328" />
              <mxPoint x="185" y="338" />
              <mxPoint x="90" y="338" />
            </Array>
            <mxPoint x="451" y="318" as="targetPoint" />
            <mxPoint as="offset" />
          </mxGeometry>
        </mxCell>
        <mxCell id="MEd4CwuiAMRqGkoVa9on-49" value="updateModelView(GameView)" style="html=1;verticalAlign=bottom;endArrow=none;edgeStyle=elbowEdgeStyle;elbow=vertical;curved=0;rounded=0;endFill=0;startArrow=classic;startFill=1;strokeWidth=1;startSize=6;" edge="1" parent="aM9ryv3xv72pqoxQDRHE-5" source="MEd4CwuiAMRqGkoVa9on-56">
          <mxGeometry relative="1" as="geometry">
            <mxPoint x="-134" y="338" as="sourcePoint" />
            <Array as="points">
              <mxPoint x="-74" y="340" />
              <mxPoint x="-84" y="338" />
              <mxPoint x="-58" y="328" />
              <mxPoint x="-58" y="348" />
              <mxPoint x="-158" y="338" />
              <mxPoint x="-218" y="338" />
              <mxPoint x="-260" y="348" />
              <mxPoint x="-220" y="358" />
              <mxPoint x="-315" y="358" />
            </Array>
            <mxPoint x="51" y="338" as="targetPoint" />
            <mxPoint as="offset" />
          </mxGeometry>
        </mxCell>
        <mxCell id="MEd4CwuiAMRqGkoVa9on-53" value="" style="html=1;points=[];perimeter=orthogonalPerimeter;outlineConnect=0;targetShapes=umlLifeline;portConstraint=eastwest;newEdgeStyle={&quot;edgeStyle&quot;:&quot;elbowEdgeStyle&quot;,&quot;elbow&quot;:&quot;vertical&quot;,&quot;curved&quot;:0,&quot;rounded&quot;:0};" vertex="1" parent="aM9ryv3xv72pqoxQDRHE-5">
          <mxGeometry x="51" y="368" width="10" height="40" as="geometry" />
        </mxCell>
        <mxCell id="MEd4CwuiAMRqGkoVa9on-54" value="startOfTheGame()" style="html=1;verticalAlign=bottom;endArrow=none;edgeStyle=elbowEdgeStyle;elbow=vertical;curved=0;rounded=0;endFill=0;startArrow=classic;startFill=1;strokeWidth=1;startSize=6;" edge="1" parent="aM9ryv3xv72pqoxQDRHE-5" source="MEd4CwuiAMRqGkoVa9on-53">
          <mxGeometry x="-0.4711" relative="1" as="geometry">
            <mxPoint x="66" y="368" as="sourcePoint" />
            <Array as="points">
              <mxPoint x="321" y="368" />
              <mxPoint x="347" y="358" />
              <mxPoint x="347" y="378" />
              <mxPoint x="247" y="368" />
              <mxPoint x="187" y="368" />
              <mxPoint x="145" y="378" />
              <mxPoint x="185" y="388" />
              <mxPoint x="90" y="388" />
            </Array>
            <mxPoint x="451" y="368" as="targetPoint" />
            <mxPoint as="offset" />
          </mxGeometry>
        </mxCell>
        <mxCell id="MEd4CwuiAMRqGkoVa9on-55" value="updateModelView(GameView)" style="html=1;verticalAlign=bottom;endArrow=none;edgeStyle=elbowEdgeStyle;elbow=vertical;curved=0;rounded=0;endFill=0;startArrow=classic;startFill=1;strokeWidth=1;startSize=6;" edge="1" parent="aM9ryv3xv72pqoxQDRHE-5" source="MEd4CwuiAMRqGkoVa9on-69">
          <mxGeometry relative="1" as="geometry">
            <mxPoint x="-134" y="388" as="sourcePoint" />
            <Array as="points">
              <mxPoint x="-44" y="390" />
              <mxPoint x="-34" y="400" />
              <mxPoint x="-84" y="388" />
              <mxPoint x="-58" y="378" />
              <mxPoint x="-58" y="398" />
              <mxPoint x="-158" y="388" />
              <mxPoint x="-218" y="388" />
              <mxPoint x="-260" y="398" />
              <mxPoint x="-220" y="408" />
              <mxPoint x="-315" y="408" />
            </Array>
            <mxPoint x="51" y="388" as="targetPoint" />
            <mxPoint as="offset" />
          </mxGeometry>
        </mxCell>
        <mxCell id="MEd4CwuiAMRqGkoVa9on-70" value="" style="html=1;points=[];perimeter=orthogonalPerimeter;outlineConnect=0;targetShapes=umlLifeline;portConstraint=eastwest;newEdgeStyle={&quot;edgeStyle&quot;:&quot;elbowEdgeStyle&quot;,&quot;elbow&quot;:&quot;vertical&quot;,&quot;curved&quot;:0,&quot;rounded&quot;:0};" vertex="1" parent="aM9ryv3xv72pqoxQDRHE-5">
          <mxGeometry x="41" y="520" width="10" height="30" as="geometry" />
        </mxCell>
        <mxCell id="MEd4CwuiAMRqGkoVa9on-76" value="" style="html=1;points=[];perimeter=orthogonalPerimeter;outlineConnect=0;targetShapes=umlLifeline;portConstraint=eastwest;newEdgeStyle={&quot;edgeStyle&quot;:&quot;elbowEdgeStyle&quot;,&quot;elbow&quot;:&quot;vertical&quot;,&quot;curved&quot;:0,&quot;rounded&quot;:0};" vertex="1" parent="aM9ryv3xv72pqoxQDRHE-5">
          <mxGeometry x="51" y="580" width="10" height="30" as="geometry" />
        </mxCell>
        <mxCell id="MEd4CwuiAMRqGkoVa9on-117" value="" style="html=1;points=[];perimeter=orthogonalPerimeter;outlineConnect=0;targetShapes=umlLifeline;portConstraint=eastwest;newEdgeStyle={&quot;edgeStyle&quot;:&quot;elbowEdgeStyle&quot;,&quot;elbow&quot;:&quot;vertical&quot;,&quot;curved&quot;:0,&quot;rounded&quot;:0};" vertex="1" parent="aM9ryv3xv72pqoxQDRHE-5">
          <mxGeometry x="41" y="90" width="10" height="30" as="geometry" />
        </mxCell>
        <mxCell id="MEd4CwuiAMRqGkoVa9on-124" value="" style="html=1;points=[];perimeter=orthogonalPerimeter;outlineConnect=0;targetShapes=umlLifeline;portConstraint=eastwest;newEdgeStyle={&quot;edgeStyle&quot;:&quot;elbowEdgeStyle&quot;,&quot;elbow&quot;:&quot;vertical&quot;,&quot;curved&quot;:0,&quot;rounded&quot;:0};" vertex="1" parent="aM9ryv3xv72pqoxQDRHE-5">
          <mxGeometry x="41" y="840" width="10" height="30" as="geometry" />
        </mxCell>
        <mxCell id="MEd4CwuiAMRqGkoVa9on-126" value="" style="html=1;points=[];perimeter=orthogonalPerimeter;outlineConnect=0;targetShapes=umlLifeline;portConstraint=eastwest;newEdgeStyle={&quot;edgeStyle&quot;:&quot;elbowEdgeStyle&quot;,&quot;elbow&quot;:&quot;vertical&quot;,&quot;curved&quot;:0,&quot;rounded&quot;:0};" vertex="1" parent="aM9ryv3xv72pqoxQDRHE-5">
          <mxGeometry x="51" y="900" width="10" height="30" as="geometry" />
        </mxCell>
        <mxCell id="MEd4CwuiAMRqGkoVa9on-1" value=":UI" style="shape=umlLifeline;perimeter=lifelinePerimeter;whiteSpace=wrap;html=1;container=0;dropTarget=0;collapsible=0;recursiveResize=0;outlineConnect=0;portConstraint=eastwest;newEdgeStyle={&quot;edgeStyle&quot;:&quot;elbowEdgeStyle&quot;,&quot;elbow&quot;:&quot;vertical&quot;,&quot;curved&quot;:0,&quot;rounded&quot;:0};" vertex="1" parent="1">
          <mxGeometry x="90" y="-60" width="100" height="1180" as="geometry" />
        </mxCell>
        <mxCell id="MEd4CwuiAMRqGkoVa9on-2" value="" style="html=1;points=[];perimeter=orthogonalPerimeter;outlineConnect=0;targetShapes=umlLifeline;portConstraint=eastwest;newEdgeStyle={&quot;edgeStyle&quot;:&quot;elbowEdgeStyle&quot;,&quot;elbow&quot;:&quot;vertical&quot;,&quot;curved&quot;:0,&quot;rounded&quot;:0};" vertex="1" parent="MEd4CwuiAMRqGkoVa9on-1">
          <mxGeometry x="45" y="80" width="10" height="1020" as="geometry" />
        </mxCell>
        <mxCell id="MEd4CwuiAMRqGkoVa9on-60" value="" style="html=1;points=[];perimeter=orthogonalPerimeter;outlineConnect=0;targetShapes=umlLifeline;portConstraint=eastwest;newEdgeStyle={&quot;edgeStyle&quot;:&quot;elbowEdgeStyle&quot;,&quot;elbow&quot;:&quot;vertical&quot;,&quot;curved&quot;:0,&quot;rounded&quot;:0};" vertex="1" parent="MEd4CwuiAMRqGkoVa9on-1">
          <mxGeometry x="50" y="510" width="10" height="30" as="geometry" />
        </mxCell>
        <mxCell id="MEd4CwuiAMRqGkoVa9on-61" value="" style="html=1;points=[];perimeter=orthogonalPerimeter;outlineConnect=0;targetShapes=umlLifeline;portConstraint=eastwest;newEdgeStyle={&quot;edgeStyle&quot;:&quot;elbowEdgeStyle&quot;,&quot;elbow&quot;:&quot;vertical&quot;,&quot;curved&quot;:0,&quot;rounded&quot;:0};" vertex="1" parent="MEd4CwuiAMRqGkoVa9on-1">
          <mxGeometry x="50" y="408" width="10" height="30" as="geometry" />
        </mxCell>
        <mxCell id="MEd4CwuiAMRqGkoVa9on-45" value="" style="html=1;points=[];perimeter=orthogonalPerimeter;outlineConnect=0;targetShapes=umlLifeline;portConstraint=eastwest;newEdgeStyle={&quot;edgeStyle&quot;:&quot;elbowEdgeStyle&quot;,&quot;elbow&quot;:&quot;vertical&quot;,&quot;curved&quot;:0,&quot;rounded&quot;:0};" vertex="1" parent="MEd4CwuiAMRqGkoVa9on-1">
          <mxGeometry x="50" y="290" width="10" height="30" as="geometry" />
        </mxCell>
        <mxCell id="MEd4CwuiAMRqGkoVa9on-122" value="" style="html=1;points=[];perimeter=orthogonalPerimeter;outlineConnect=0;targetShapes=umlLifeline;portConstraint=eastwest;newEdgeStyle={&quot;edgeStyle&quot;:&quot;elbowEdgeStyle&quot;,&quot;elbow&quot;:&quot;vertical&quot;,&quot;curved&quot;:0,&quot;rounded&quot;:0};" vertex="1" parent="MEd4CwuiAMRqGkoVa9on-1">
          <mxGeometry x="50" y="700" width="10" height="30" as="geometry" />
        </mxCell>
        <mxCell id="MEd4CwuiAMRqGkoVa9on-128" value="" style="html=1;points=[];perimeter=orthogonalPerimeter;outlineConnect=0;targetShapes=umlLifeline;portConstraint=eastwest;newEdgeStyle={&quot;edgeStyle&quot;:&quot;elbowEdgeStyle&quot;,&quot;elbow&quot;:&quot;vertical&quot;,&quot;curved&quot;:0,&quot;rounded&quot;:0};" vertex="1" parent="MEd4CwuiAMRqGkoVa9on-1">
          <mxGeometry x="50" y="1040" width="10" height="30" as="geometry" />
        </mxCell>
        <mxCell id="MEd4CwuiAMRqGkoVa9on-12" value="&lt;font style=&quot;font-size: 8px;&quot;&gt;User&lt;/font&gt;" style="shape=umlActor;verticalLabelPosition=bottom;verticalAlign=top;html=1;outlineConnect=0;" vertex="1" parent="1">
          <mxGeometry x="-48" y="-60" width="15" height="30" as="geometry" />
        </mxCell>
        <mxCell id="MEd4CwuiAMRqGkoVa9on-19" value="addPlayer(nickname)" style="html=1;verticalAlign=bottom;endArrow=block;edgeStyle=elbowEdgeStyle;elbow=vertical;curved=0;rounded=0;" edge="1" parent="1" source="MEd4CwuiAMRqGkoVa9on-41" target="MEd4CwuiAMRqGkoVa9on-117">
          <mxGeometry relative="1" as="geometry">
            <mxPoint x="333" y="130" as="sourcePoint" />
            <Array as="points">
              <mxPoint x="423" y="130" />
              <mxPoint x="463" y="140" />
              <mxPoint x="368" y="140" />
            </Array>
            <mxPoint x="518" y="130" as="targetPoint" />
          </mxGeometry>
        </mxCell>
        <mxCell id="MEd4CwuiAMRqGkoVa9on-20" value=":GameController" style="shape=umlLifeline;perimeter=lifelinePerimeter;whiteSpace=wrap;html=1;container=0;dropTarget=0;collapsible=0;recursiveResize=0;outlineConnect=0;portConstraint=eastwest;newEdgeStyle={&quot;edgeStyle&quot;:&quot;elbowEdgeStyle&quot;,&quot;elbow&quot;:&quot;vertical&quot;,&quot;curved&quot;:0,&quot;rounded&quot;:0};" vertex="1" parent="1">
          <mxGeometry x="669" y="40" width="100" height="1080" as="geometry" />
        </mxCell>
        <mxCell id="MEd4CwuiAMRqGkoVa9on-21" value="" style="html=1;points=[];perimeter=orthogonalPerimeter;outlineConnect=0;targetShapes=umlLifeline;portConstraint=eastwest;newEdgeStyle={&quot;edgeStyle&quot;:&quot;elbowEdgeStyle&quot;,&quot;elbow&quot;:&quot;vertical&quot;,&quot;curved&quot;:0,&quot;rounded&quot;:0};" vertex="1" parent="MEd4CwuiAMRqGkoVa9on-20">
          <mxGeometry x="45" y="100" width="10" height="290" as="geometry" />
        </mxCell>
        <mxCell id="MEd4CwuiAMRqGkoVa9on-72" value="" style="html=1;points=[];perimeter=orthogonalPerimeter;outlineConnect=0;targetShapes=umlLifeline;portConstraint=eastwest;newEdgeStyle={&quot;edgeStyle&quot;:&quot;elbowEdgeStyle&quot;,&quot;elbow&quot;:&quot;vertical&quot;,&quot;curved&quot;:0,&quot;rounded&quot;:0};" vertex="1" parent="MEd4CwuiAMRqGkoVa9on-20">
          <mxGeometry x="45" y="530" width="10" height="180" as="geometry" />
        </mxCell>
        <mxCell id="MEd4CwuiAMRqGkoVa9on-100" value="" style="html=1;points=[];perimeter=orthogonalPerimeter;outlineConnect=0;targetShapes=umlLifeline;portConstraint=eastwest;newEdgeStyle={&quot;edgeStyle&quot;:&quot;elbowEdgeStyle&quot;,&quot;elbow&quot;:&quot;vertical&quot;,&quot;curved&quot;:0,&quot;rounded&quot;:0};" vertex="1" parent="MEd4CwuiAMRqGkoVa9on-20">
          <mxGeometry x="45" y="850" width="10" height="70" as="geometry" />
        </mxCell>
        <mxCell id="MEd4CwuiAMRqGkoVa9on-22" value="addPlayer(nickname)" style="html=1;verticalAlign=bottom;endArrow=block;edgeStyle=elbowEdgeStyle;elbow=vertical;curved=0;rounded=0;" edge="1" parent="1" source="MEd4CwuiAMRqGkoVa9on-117">
          <mxGeometry relative="1" as="geometry">
            <mxPoint x="530" y="140" as="sourcePoint" />
            <Array as="points">
              <mxPoint x="618" y="140" />
              <mxPoint x="658" y="150" />
              <mxPoint x="563" y="150" />
            </Array>
            <mxPoint x="713" y="140" as="targetPoint" />
          </mxGeometry>
        </mxCell>
        <mxCell id="MEd4CwuiAMRqGkoVa9on-23" value=":Game" style="shape=umlLifeline;perimeter=lifelinePerimeter;whiteSpace=wrap;html=1;container=0;dropTarget=0;collapsible=0;recursiveResize=0;outlineConnect=0;portConstraint=eastwest;newEdgeStyle={&quot;edgeStyle&quot;:&quot;elbowEdgeStyle&quot;,&quot;elbow&quot;:&quot;vertical&quot;,&quot;curved&quot;:0,&quot;rounded&quot;:0};" vertex="1" parent="1">
          <mxGeometry x="880" y="40" width="100" height="1080" as="geometry" />
        </mxCell>
        <mxCell id="MEd4CwuiAMRqGkoVa9on-24" value="" style="html=1;points=[];perimeter=orthogonalPerimeter;outlineConnect=0;targetShapes=umlLifeline;portConstraint=eastwest;newEdgeStyle={&quot;edgeStyle&quot;:&quot;elbowEdgeStyle&quot;,&quot;elbow&quot;:&quot;vertical&quot;,&quot;curved&quot;:0,&quot;rounded&quot;:0};" vertex="1" parent="MEd4CwuiAMRqGkoVa9on-23">
          <mxGeometry x="45" y="110" width="10" height="50" as="geometry" />
        </mxCell>
        <mxCell id="MEd4CwuiAMRqGkoVa9on-37" value="" style="html=1;points=[];perimeter=orthogonalPerimeter;outlineConnect=0;targetShapes=umlLifeline;portConstraint=eastwest;newEdgeStyle={&quot;edgeStyle&quot;:&quot;elbowEdgeStyle&quot;,&quot;elbow&quot;:&quot;vertical&quot;,&quot;curved&quot;:0,&quot;rounded&quot;:0};" vertex="1" parent="MEd4CwuiAMRqGkoVa9on-23">
          <mxGeometry x="45" y="248" width="10" height="132" as="geometry" />
        </mxCell>
        <mxCell id="MEd4CwuiAMRqGkoVa9on-73" value="" style="html=1;points=[];perimeter=orthogonalPerimeter;outlineConnect=0;targetShapes=umlLifeline;portConstraint=eastwest;newEdgeStyle={&quot;edgeStyle&quot;:&quot;elbowEdgeStyle&quot;,&quot;elbow&quot;:&quot;vertical&quot;,&quot;curved&quot;:0,&quot;rounded&quot;:0};" vertex="1" parent="MEd4CwuiAMRqGkoVa9on-23">
          <mxGeometry x="45" y="550" width="10" height="50" as="geometry" />
        </mxCell>
        <mxCell id="MEd4CwuiAMRqGkoVa9on-102" value="" style="html=1;points=[];perimeter=orthogonalPerimeter;outlineConnect=0;targetShapes=umlLifeline;portConstraint=eastwest;newEdgeStyle={&quot;edgeStyle&quot;:&quot;elbowEdgeStyle&quot;,&quot;elbow&quot;:&quot;vertical&quot;,&quot;curved&quot;:0,&quot;rounded&quot;:0};" vertex="1" parent="MEd4CwuiAMRqGkoVa9on-23">
          <mxGeometry x="45" y="870" width="10" height="40" as="geometry" />
        </mxCell>
        <mxCell id="MEd4CwuiAMRqGkoVa9on-28" value="startServer" style="html=1;verticalAlign=bottom;startArrow=oval;endArrow=block;startSize=8;edgeStyle=elbowEdgeStyle;elbow=vertical;curved=0;rounded=0;" edge="1" parent="1" target="aM9ryv3xv72pqoxQDRHE-6">
          <mxGeometry relative="1" as="geometry">
            <mxPoint x="440" y="100" as="sourcePoint" />
            <mxPoint x="515" y="90" as="targetPoint" />
          </mxGeometry>
        </mxCell>
        <mxCell id="MEd4CwuiAMRqGkoVa9on-30" value="addedPlayer()" style="html=1;verticalAlign=bottom;endArrow=none;edgeStyle=elbowEdgeStyle;elbow=vertical;curved=0;rounded=0;endFill=0;startArrow=classic;startFill=1;strokeWidth=1;startSize=6;" edge="1" parent="1" source="MEd4CwuiAMRqGkoVa9on-31" target="MEd4CwuiAMRqGkoVa9on-24">
          <mxGeometry x="-0.4711" relative="1" as="geometry">
            <mxPoint x="540" y="190" as="sourcePoint" />
            <Array as="points">
              <mxPoint x="790" y="190" />
              <mxPoint x="816" y="180" />
              <mxPoint x="816" y="200" />
              <mxPoint x="716" y="190" />
              <mxPoint x="656" y="190" />
              <mxPoint x="614" y="200" />
              <mxPoint x="654" y="210" />
              <mxPoint x="559" y="210" />
            </Array>
            <mxPoint x="921" y="180" as="targetPoint" />
            <mxPoint as="offset" />
          </mxGeometry>
        </mxCell>
        <mxCell id="MEd4CwuiAMRqGkoVa9on-32" value="updateModelView(GameView)" style="html=1;verticalAlign=bottom;endArrow=none;edgeStyle=elbowEdgeStyle;elbow=vertical;curved=0;rounded=0;endFill=0;startArrow=classic;startFill=1;strokeWidth=1;startSize=6;" edge="1" parent="1">
          <mxGeometry relative="1" as="geometry">
            <mxPoint x="340" y="210" as="sourcePoint" />
            <Array as="points">
              <mxPoint x="390" y="210" />
              <mxPoint x="416" y="200" />
              <mxPoint x="416" y="220" />
              <mxPoint x="316" y="210" />
              <mxPoint x="256" y="210" />
              <mxPoint x="214" y="220" />
              <mxPoint x="254" y="230" />
              <mxPoint x="159" y="230" />
            </Array>
            <mxPoint x="525" y="210" as="targetPoint" />
            <mxPoint as="offset" />
          </mxGeometry>
        </mxCell>
        <mxCell id="MEd4CwuiAMRqGkoVa9on-33" value="updateModelView(GameView)" style="html=1;verticalAlign=bottom;endArrow=none;edgeStyle=elbowEdgeStyle;elbow=vertical;curved=0;rounded=0;endFill=0;startArrow=classic;startFill=1;strokeWidth=1;startSize=6;" edge="1" parent="1" source="MEd4CwuiAMRqGkoVa9on-45" target="MEd4CwuiAMRqGkoVa9on-118">
          <mxGeometry relative="1" as="geometry">
            <mxPoint x="150" y="250" as="sourcePoint" />
            <Array as="points">
              <mxPoint x="230" y="230" />
              <mxPoint x="260" y="240" />
              <mxPoint x="205" y="250" />
              <mxPoint x="231" y="240" />
              <mxPoint x="231" y="260" />
              <mxPoint x="131" y="250" />
              <mxPoint x="71" y="250" />
              <mxPoint x="29" y="260" />
              <mxPoint x="69" y="270" />
              <mxPoint x="-26" y="270" />
            </Array>
            <mxPoint x="340" y="250" as="targetPoint" />
            <mxPoint as="offset" />
          </mxGeometry>
        </mxCell>
        <mxCell id="MEd4CwuiAMRqGkoVa9on-36" value="setActivePlayerIndex(Random [0:NumPlayers])" style="html=1;verticalAlign=bottom;endArrow=block;edgeStyle=elbowEdgeStyle;elbow=vertical;curved=0;rounded=0;fontSize=8;" edge="1" parent="1" target="MEd4CwuiAMRqGkoVa9on-37">
          <mxGeometry x="-0.0023" relative="1" as="geometry">
            <mxPoint x="723.9999999999998" y="287.9999999999999" as="sourcePoint" />
            <Array as="points">
              <mxPoint x="818" y="288" />
              <mxPoint x="858" y="298" />
              <mxPoint x="763" y="298" />
            </Array>
            <mxPoint x="920" y="288" as="targetPoint" />
            <mxPoint as="offset" />
          </mxGeometry>
        </mxCell>
        <mxCell id="MEd4CwuiAMRqGkoVa9on-42" value="" style="html=1;points=[];perimeter=orthogonalPerimeter;outlineConnect=0;targetShapes=umlLifeline;portConstraint=eastwest;newEdgeStyle={&quot;edgeStyle&quot;:&quot;elbowEdgeStyle&quot;,&quot;elbow&quot;:&quot;vertical&quot;,&quot;curved&quot;:0,&quot;rounded&quot;:0};" vertex="1" parent="1">
          <mxGeometry x="330" y="328" width="10" height="30" as="geometry" />
        </mxCell>
        <mxCell id="MEd4CwuiAMRqGkoVa9on-43" value="updateModelView(GameView)" style="html=1;verticalAlign=bottom;endArrow=none;edgeStyle=elbowEdgeStyle;elbow=vertical;curved=0;rounded=0;endFill=0;startArrow=classic;startFill=1;strokeWidth=1;startSize=6;" edge="1" parent="1">
          <mxGeometry relative="1" as="geometry">
            <mxPoint x="340" y="328" as="sourcePoint" />
            <Array as="points">
              <mxPoint x="390" y="328" />
              <mxPoint x="416" y="318" />
              <mxPoint x="416" y="338" />
              <mxPoint x="316" y="328" />
              <mxPoint x="256" y="328" />
              <mxPoint x="214" y="338" />
              <mxPoint x="254" y="348" />
              <mxPoint x="159" y="348" />
            </Array>
            <mxPoint x="525" y="328" as="targetPoint" />
            <mxPoint as="offset" />
          </mxGeometry>
        </mxCell>
        <mxCell id="MEd4CwuiAMRqGkoVa9on-44" value="updateModelView(GameView)" style="html=1;verticalAlign=bottom;endArrow=none;edgeStyle=elbowEdgeStyle;elbow=vertical;curved=0;rounded=0;endFill=0;startArrow=classic;startFill=1;strokeWidth=1;startSize=6;" edge="1" parent="1" target="MEd4CwuiAMRqGkoVa9on-42">
          <mxGeometry relative="1" as="geometry">
            <mxPoint x="150" y="348" as="sourcePoint" />
            <Array as="points">
              <mxPoint x="205" y="348" />
              <mxPoint x="231" y="338" />
              <mxPoint x="231" y="358" />
              <mxPoint x="131" y="348" />
              <mxPoint x="71" y="348" />
              <mxPoint x="29" y="358" />
              <mxPoint x="69" y="368" />
              <mxPoint x="-26" y="368" />
            </Array>
            <mxPoint x="320" y="348" as="targetPoint" />
            <mxPoint as="offset" />
          </mxGeometry>
        </mxCell>
        <mxCell id="MEd4CwuiAMRqGkoVa9on-63" value="getBoard().addTiles(tiles)" style="html=1;verticalAlign=bottom;endArrow=block;edgeStyle=elbowEdgeStyle;elbow=vertical;curved=0;rounded=0;fontSize=8;" edge="1" parent="1">
          <mxGeometry x="-0.0023" relative="1" as="geometry">
            <mxPoint x="724" y="334" as="sourcePoint" />
            <Array as="points">
              <mxPoint x="880" y="334" />
              <mxPoint x="860" y="324" />
              <mxPoint x="814" y="324" />
              <mxPoint x="854" y="334" />
              <mxPoint x="759" y="334" />
            </Array>
            <mxPoint x="925" y="334" as="targetPoint" />
            <mxPoint as="offset" />
          </mxGeometry>
        </mxCell>
        <mxCell id="MEd4CwuiAMRqGkoVa9on-64" value="setStarted(true)" style="html=1;verticalAlign=bottom;endArrow=block;edgeStyle=elbowEdgeStyle;elbow=vertical;curved=0;rounded=0;fontSize=8;" edge="1" parent="1">
          <mxGeometry x="-0.0023" relative="1" as="geometry">
            <mxPoint x="724" y="385" as="sourcePoint" />
            <Array as="points">
              <mxPoint x="830" y="385" />
              <mxPoint x="876" y="375" />
              <mxPoint x="856" y="365" />
              <mxPoint x="810" y="365" />
              <mxPoint x="850" y="375" />
              <mxPoint x="755" y="375" />
            </Array>
            <mxPoint x="925" y="385" as="targetPoint" />
            <mxPoint as="offset" />
          </mxGeometry>
        </mxCell>
        <mxCell id="MEd4CwuiAMRqGkoVa9on-65" value="opt" style="shape=umlFrame;whiteSpace=wrap;html=1;pointerEvents=0;container=0;" vertex="1" parent="1">
          <mxGeometry y="270" width="960" height="250" as="geometry">
            <mxRectangle x="440" y="560" width="70" height="30" as="alternateBounds" />
          </mxGeometry>
        </mxCell>
        <mxCell id="MEd4CwuiAMRqGkoVa9on-66" value="[getPlayers().size() == NumberOfPlayersToStart]" style="text;html=1;strokeColor=none;fillColor=none;align=center;verticalAlign=middle;whiteSpace=wrap;rounded=0;fontSize=10;" vertex="1" parent="1">
          <mxGeometry x="-10" y="310" width="160" height="30" as="geometry" />
        </mxCell>
        <mxCell id="MEd4CwuiAMRqGkoVa9on-67" value="&lt;font style=&quot;font-size: 7px;&quot;&gt;chooseNumberOfPlayerInTheGame(number)&lt;/font&gt;" style="html=1;verticalAlign=bottom;endArrow=block;edgeStyle=elbowEdgeStyle;elbow=vertical;curved=0;rounded=0;fontSize=8;" edge="1" parent="1">
          <mxGeometry relative="1" as="geometry">
            <mxPoint x="145" y="550" as="sourcePoint" />
            <Array as="points">
              <mxPoint x="235" y="550" />
              <mxPoint x="275" y="560" />
              <mxPoint x="180" y="560" />
            </Array>
            <mxPoint x="320" y="550" as="targetPoint" />
          </mxGeometry>
        </mxCell>
        <mxCell id="MEd4CwuiAMRqGkoVa9on-68" value="chooseNumberOfPlayerInTheGame(number)" style="html=1;verticalAlign=bottom;endArrow=block;edgeStyle=elbowEdgeStyle;elbow=vertical;curved=0;rounded=0;fontSize=8;" edge="1" parent="1" source="MEd4CwuiAMRqGkoVa9on-79" target="MEd4CwuiAMRqGkoVa9on-70">
          <mxGeometry relative="1" as="geometry">
            <mxPoint x="340" y="560" as="sourcePoint" />
            <Array as="points">
              <mxPoint x="430" y="560" />
              <mxPoint x="470" y="570" />
              <mxPoint x="375" y="570" />
            </Array>
            <mxPoint x="520" y="560" as="targetPoint" />
          </mxGeometry>
        </mxCell>
        <mxCell id="MEd4CwuiAMRqGkoVa9on-71" value="chooseNumberOfPlayerInTheGame(number)" style="html=1;verticalAlign=bottom;endArrow=block;edgeStyle=elbowEdgeStyle;elbow=vertical;curved=0;rounded=0;fontSize=8;" edge="1" parent="1" source="MEd4CwuiAMRqGkoVa9on-70">
          <mxGeometry relative="1" as="geometry">
            <mxPoint x="535" y="570" as="sourcePoint" />
            <Array as="points">
              <mxPoint x="625" y="570" />
              <mxPoint x="665" y="580" />
              <mxPoint x="570" y="580" />
            </Array>
            <mxPoint x="714" y="570" as="targetPoint" />
          </mxGeometry>
        </mxCell>
        <mxCell id="MEd4CwuiAMRqGkoVa9on-87" value="ref = StartGame" style="text;html=1;align=center;verticalAlign=middle;rounded=0;fontStyle=1;fontColor=#4a52c4;" vertex="1" parent="1">
          <mxGeometry x="90" y="270" width="50" height="30" as="geometry" />
        </mxCell>
        <mxCell id="MEd4CwuiAMRqGkoVa9on-86" value="ref" style="shape=umlFrame;whiteSpace=wrap;html=1;pointerEvents=0;container=0;" vertex="1" parent="1">
          <mxGeometry y="720" width="950" height="40" as="geometry">
            <mxRectangle width="50" height="30" as="alternateBounds" />
          </mxGeometry>
        </mxCell>
        <mxCell id="MEd4CwuiAMRqGkoVa9on-89" value="StartGame" style="text;html=1;align=center;verticalAlign=middle;rounded=0;fontStyle=1;fontColor=#4a52c4;container=0;" vertex="1" parent="1">
          <mxGeometry x="79.99666666666667" y="730.62" width="38.166666666666664" height="18.75" as="geometry">
            <mxRectangle x="840" y="660" width="100" height="30" as="alternateBounds" />
          </mxGeometry>
        </mxCell>
        <mxCell id="MEd4CwuiAMRqGkoVa9on-92" value="" style="html=1;points=[];perimeter=orthogonalPerimeter;outlineConnect=0;targetShapes=umlLifeline;portConstraint=eastwest;newEdgeStyle={&quot;edgeStyle&quot;:&quot;elbowEdgeStyle&quot;,&quot;elbow&quot;:&quot;vertical&quot;,&quot;curved&quot;:0,&quot;rounded&quot;:0};" vertex="1" parent="1">
          <mxGeometry x="925" y="730" width="10" height="20" as="geometry" />
        </mxCell>
        <mxCell id="MEd4CwuiAMRqGkoVa9on-7" value="" style="html=1;points=[];perimeter=orthogonalPerimeter;outlineConnect=0;targetShapes=umlLifeline;portConstraint=eastwest;newEdgeStyle={&quot;edgeStyle&quot;:&quot;elbowEdgeStyle&quot;,&quot;elbow&quot;:&quot;vertical&quot;,&quot;curved&quot;:0,&quot;rounded&quot;:0};" vertex="1" parent="1">
          <mxGeometry x="-45.5" y="810" width="10" height="50" as="geometry" />
        </mxCell>
        <mxCell id="MEd4CwuiAMRqGkoVa9on-95" value="select tiles from the board and &lt;br&gt;insert in the bookshelf" style="html=1;verticalAlign=bottom;endArrow=block;edgeStyle=elbowEdgeStyle;elbow=vertical;curved=0;rounded=0;" edge="1" parent="1" source="MEd4CwuiAMRqGkoVa9on-7" target="MEd4CwuiAMRqGkoVa9on-2">
          <mxGeometry relative="1" as="geometry">
            <mxPoint x="-37.5" y="854.64" as="sourcePoint" />
            <Array as="points">
              <mxPoint x="52.5" y="854.64" />
              <mxPoint x="92.5" y="864.64" />
              <mxPoint x="-2.5" y="864.64" />
            </Array>
            <mxPoint x="147.5" y="854.64" as="targetPoint" />
          </mxGeometry>
        </mxCell>
        <mxCell id="MEd4CwuiAMRqGkoVa9on-98" value="insertUserInputIntoModel(choice)" style="html=1;verticalAlign=bottom;endArrow=block;edgeStyle=elbowEdgeStyle;elbow=vertical;curved=0;rounded=0;fontSize=10;" edge="1" parent="1" source="MEd4CwuiAMRqGkoVa9on-2" target="MEd4CwuiAMRqGkoVa9on-109">
          <mxGeometry x="0.0041" relative="1" as="geometry">
            <mxPoint x="140" y="870" as="sourcePoint" />
            <Array as="points">
              <mxPoint x="240" y="870" />
              <mxPoint x="280" y="880" />
              <mxPoint x="185" y="880" />
            </Array>
            <mxPoint x="322.5" y="870.36" as="targetPoint" />
            <mxPoint as="offset" />
          </mxGeometry>
        </mxCell>
        <mxCell id="MEd4CwuiAMRqGkoVa9on-99" value="insertUserInputIntoModel(choice)" style="html=1;verticalAlign=bottom;endArrow=block;edgeStyle=elbowEdgeStyle;elbow=vertical;curved=0;rounded=0;" edge="1" parent="1" source="MEd4CwuiAMRqGkoVa9on-109" target="MEd4CwuiAMRqGkoVa9on-124">
          <mxGeometry relative="1" as="geometry">
            <mxPoint x="330" y="880" as="sourcePoint" />
            <Array as="points">
              <mxPoint x="430" y="880" />
              <mxPoint x="470" y="890" />
              <mxPoint x="375" y="890" />
            </Array>
            <mxPoint x="515" y="880" as="targetPoint" />
          </mxGeometry>
        </mxCell>
        <mxCell id="MEd4CwuiAMRqGkoVa9on-101" value="insertUserInputIntoModel(choice)" style="html=1;verticalAlign=bottom;endArrow=block;edgeStyle=elbowEdgeStyle;elbow=vertical;curved=0;rounded=0;" edge="1" parent="1" source="MEd4CwuiAMRqGkoVa9on-124">
          <mxGeometry relative="1" as="geometry">
            <mxPoint x="530" y="890" as="sourcePoint" />
            <Array as="points">
              <mxPoint x="625" y="890" />
              <mxPoint x="665" y="900" />
              <mxPoint x="570" y="900" />
            </Array>
            <mxPoint x="714" y="890" as="targetPoint" />
          </mxGeometry>
        </mxCell>
        <mxCell id="MEd4CwuiAMRqGkoVa9on-103" value="insertUserInputIntoModel(choice)" style="html=1;verticalAlign=bottom;endArrow=block;edgeStyle=elbowEdgeStyle;elbow=vertical;curved=0;rounded=0;" edge="1" parent="1" source="MEd4CwuiAMRqGkoVa9on-100" target="MEd4CwuiAMRqGkoVa9on-102">
          <mxGeometry relative="1" as="geometry">
            <mxPoint x="730" y="910" as="sourcePoint" />
            <Array as="points">
              <mxPoint x="825" y="910" />
              <mxPoint x="865" y="920" />
              <mxPoint x="770" y="920" />
            </Array>
            <mxPoint x="920" y="910" as="targetPoint" />
          </mxGeometry>
        </mxCell>
        <mxCell id="MEd4CwuiAMRqGkoVa9on-104" value="removedTilesFromBoard()" style="html=1;verticalAlign=bottom;endArrow=none;edgeStyle=elbowEdgeStyle;elbow=vertical;curved=0;rounded=0;endFill=0;startArrow=classic;startFill=1;strokeWidth=1;startSize=6;" edge="1" parent="1" source="MEd4CwuiAMRqGkoVa9on-126">
          <mxGeometry x="-0.4711" relative="1" as="geometry">
            <mxPoint x="535" y="940" as="sourcePoint" />
            <Array as="points">
              <mxPoint x="790" y="940" />
              <mxPoint x="816" y="930" />
              <mxPoint x="816" y="950" />
              <mxPoint x="716" y="940" />
              <mxPoint x="656" y="940" />
              <mxPoint x="614" y="950" />
              <mxPoint x="654" y="960" />
              <mxPoint x="559" y="960" />
            </Array>
            <mxPoint x="925" y="940" as="targetPoint" />
            <mxPoint as="offset" />
          </mxGeometry>
        </mxCell>
        <mxCell id="MEd4CwuiAMRqGkoVa9on-105" value="updateModelView(GameView)" style="html=1;verticalAlign=bottom;endArrow=none;edgeStyle=elbowEdgeStyle;elbow=vertical;curved=0;rounded=0;endFill=0;startArrow=classic;startFill=1;strokeWidth=1;startSize=6;" edge="1" parent="1" source="MEd4CwuiAMRqGkoVa9on-127" target="MEd4CwuiAMRqGkoVa9on-126">
          <mxGeometry relative="1" as="geometry">
            <mxPoint x="337.5" y="960" as="sourcePoint" />
            <Array as="points">
              <mxPoint x="387.5" y="960" />
              <mxPoint x="413.5" y="950" />
              <mxPoint x="413.5" y="970" />
              <mxPoint x="313.5" y="960" />
              <mxPoint x="253.5" y="960" />
              <mxPoint x="211.5" y="970" />
              <mxPoint x="251.5" y="980" />
              <mxPoint x="156.5" y="980" />
            </Array>
            <mxPoint x="522.5" y="960" as="targetPoint" />
            <mxPoint as="offset" />
          </mxGeometry>
        </mxCell>
        <mxCell id="MEd4CwuiAMRqGkoVa9on-106" value="updateModelView(GameView)" style="html=1;verticalAlign=bottom;endArrow=none;edgeStyle=elbowEdgeStyle;elbow=vertical;curved=0;rounded=0;endFill=0;startArrow=classic;startFill=1;strokeWidth=1;startSize=6;" edge="1" parent="1" source="MEd4CwuiAMRqGkoVa9on-128" target="MEd4CwuiAMRqGkoVa9on-127">
          <mxGeometry relative="1" as="geometry">
            <mxPoint x="147.5" y="980" as="sourcePoint" />
            <Array as="points">
              <mxPoint x="202.5" y="980" />
              <mxPoint x="228.5" y="970" />
              <mxPoint x="228.5" y="990" />
              <mxPoint x="128.5" y="980" />
              <mxPoint x="68.5" y="980" />
              <mxPoint x="26.5" y="990" />
              <mxPoint x="66.5" y="1000" />
              <mxPoint x="-28.5" y="1000" />
            </Array>
            <mxPoint x="327.5" y="980" as="targetPoint" />
            <mxPoint as="offset" />
          </mxGeometry>
        </mxCell>
        <mxCell id="MEd4CwuiAMRqGkoVa9on-115" value="run()" style="html=1;verticalAlign=bottom;startArrow=oval;endArrow=block;startSize=8;edgeStyle=elbowEdgeStyle;elbow=vertical;curved=0;rounded=0;" edge="1" parent="1">
          <mxGeometry x="-0.6199" relative="1" as="geometry">
            <mxPoint x="-40" as="sourcePoint" />
            <mxPoint x="330" y="0.28999999999998494" as="targetPoint" />
            <mxPoint as="offset" />
          </mxGeometry>
        </mxCell>
        <mxCell id="MEd4CwuiAMRqGkoVa9on-119" value="" style="html=1;verticalAlign=bottom;endArrow=none;edgeStyle=elbowEdgeStyle;elbow=vertical;curved=0;rounded=0;endFill=0;startArrow=classic;startFill=1;strokeWidth=1;startSize=6;" edge="1" parent="1" target="MEd4CwuiAMRqGkoVa9on-45">
          <mxGeometry relative="1" as="geometry">
            <mxPoint x="150" y="250" as="sourcePoint" />
            <Array as="points" />
            <mxPoint x="330" y="240" as="targetPoint" />
            <mxPoint as="offset" />
          </mxGeometry>
        </mxCell>
        <mxCell id="MEd4CwuiAMRqGkoVa9on-120" value="" style="html=1;points=[];perimeter=orthogonalPerimeter;outlineConnect=0;targetShapes=umlLifeline;portConstraint=eastwest;newEdgeStyle={&quot;edgeStyle&quot;:&quot;elbowEdgeStyle&quot;,&quot;elbow&quot;:&quot;vertical&quot;,&quot;curved&quot;:0,&quot;rounded&quot;:0};" vertex="1" parent="1">
          <mxGeometry x="140" y="400" width="10" height="30" as="geometry" />
        </mxCell>
        <mxCell id="MEd4CwuiAMRqGkoVa9on-81" value="updateModelView(GameView)" style="html=1;verticalAlign=bottom;endArrow=none;edgeStyle=elbowEdgeStyle;elbow=vertical;curved=0;rounded=0;endFill=0;startArrow=classic;startFill=1;strokeWidth=1;startSize=6;" edge="1" parent="1" target="MEd4CwuiAMRqGkoVa9on-69" source="MEd4CwuiAMRqGkoVa9on-60">
          <mxGeometry relative="1" as="geometry">
            <mxPoint x="150" y="560" as="sourcePoint" />
            <Array as="points">
              <mxPoint x="270" y="450" />
              <mxPoint x="205" y="560" />
              <mxPoint x="231" y="550" />
              <mxPoint x="231" y="570" />
              <mxPoint x="131" y="560" />
              <mxPoint x="71" y="560" />
              <mxPoint x="29" y="570" />
              <mxPoint x="69" y="580" />
              <mxPoint x="-26" y="580" />
            </Array>
            <mxPoint x="335" y="450" as="targetPoint" />
            <mxPoint as="offset" />
          </mxGeometry>
        </mxCell>
        <mxCell id="MEd4CwuiAMRqGkoVa9on-80" value="updateModelView(GameView)" style="html=1;verticalAlign=bottom;endArrow=none;edgeStyle=elbowEdgeStyle;elbow=vertical;curved=0;rounded=0;endFill=0;startArrow=classic;startFill=1;strokeWidth=1;startSize=6;" edge="1" parent="1" source="MEd4CwuiAMRqGkoVa9on-121" target="MEd4CwuiAMRqGkoVa9on-76">
          <mxGeometry relative="1" as="geometry">
            <mxPoint x="340" y="540" as="sourcePoint" />
            <Array as="points">
              <mxPoint x="430" y="630" />
              <mxPoint x="390" y="540" />
              <mxPoint x="416" y="530" />
              <mxPoint x="416" y="550" />
              <mxPoint x="316" y="540" />
              <mxPoint x="256" y="540" />
              <mxPoint x="214" y="550" />
              <mxPoint x="254" y="560" />
              <mxPoint x="159" y="560" />
            </Array>
            <mxPoint x="525" y="540" as="targetPoint" />
            <mxPoint as="offset" />
          </mxGeometry>
        </mxCell>
        <mxCell id="MEd4CwuiAMRqGkoVa9on-123" value="updateModelView(GameView)" style="html=1;verticalAlign=bottom;endArrow=none;edgeStyle=elbowEdgeStyle;elbow=vertical;curved=0;rounded=0;endFill=0;startArrow=classic;startFill=1;strokeWidth=1;startSize=6;" edge="1" parent="1" source="MEd4CwuiAMRqGkoVa9on-122" target="MEd4CwuiAMRqGkoVa9on-121">
          <mxGeometry relative="1" as="geometry">
            <mxPoint x="150" y="640" as="sourcePoint" />
            <Array as="points">
              <mxPoint x="240" y="640" />
              <mxPoint x="200" y="550" />
              <mxPoint x="226" y="540" />
              <mxPoint x="226" y="560" />
              <mxPoint x="126" y="550" />
              <mxPoint x="66" y="550" />
              <mxPoint x="24" y="560" />
              <mxPoint x="64" y="570" />
              <mxPoint x="-31" y="570" />
            </Array>
            <mxPoint x="335" y="640" as="targetPoint" />
            <mxPoint as="offset" />
          </mxGeometry>
        </mxCell>
      </root>
    </mxGraphModel>
  </diagram>
</mxfile>
